<?xml version="1.0" standalone="no"?>
<!DOCTYPE svg PUBLIC "-//W3C//DTD SVG 20010904//EN"
 "http://www.w3.org/TR/2001/REC-SVG-20010904/DTD/svg10.dtd">
<svg version="1.0" xmlns="http://www.w3.org/2000/svg"
 width="249.000000pt" height="220.000000pt" viewBox="0 0 249.000000 220.000000"
 preserveAspectRatio="xMidYMid meet">

<g transform="translate(0.000000,220.000000) scale(0.100000,-0.100000)"
fill="#000000" stroke="none">
<path d="M642 1809 c-109 -14 -219 -97 -273 -206 -20 -40 -24 -64 -24 -143 0
-85 3 -101 29 -155 39 -80 148 -187 249 -244 169 -95 536 -222 647 -224 31 0
107 13 175 31 394 102 651 254 742 440 24 50 28 69 28 147 0 79 -4 97 -29 149
-37 76 -96 135 -172 172 -53 26 -69 29 -159 29 -95 0 -108 -3 -265 -57 -284
-98 -325 -98 -608 -2 -173 58 -255 73 -340 63z m195 -77 c145 -75 209 -257
141 -403 -111 -241 -446 -244 -559 -4 -59 124 -28 271 75 362 66 58 113 73
216 70 64 -3 96 -9 127 -25z m1119 11 c67 -23 154 -110 177 -177 21 -62 22
-158 1 -219 -8 -25 -34 -66 -56 -92 -153 -174 -418 -136 -516 75 -34 72 -35
171 -3 246 28 65 103 139 167 164 62 24 164 26 230 3z"/>
<path d="M609 1597 c-18 -12 -44 -38 -57 -57 -20 -30 -23 -44 -20 -97 5 -75
26 -109 88 -140 165 -85 319 104 211 256 -44 62 -158 82 -222 38z"/>
<path d="M1758 1600 c-70 -38 -103 -128 -73 -205 61 -161 287 -145 326 22 16
70 -25 154 -92 188 -39 21 -117 18 -161 -5z"/>
<path d="M337 1179 c-55 -29 -75 -75 -59 -137 19 -70 90 -167 201 -275 l99
-97 -29 -24 c-28 -24 -47 -29 -172 -41 -68 -6 -107 -24 -136 -61 -36 -45 -29
-54 45 -54 53 0 71 4 97 24 45 33 79 39 125 20 l40 -15 116 58 116 58 -62 100
c-34 55 -71 123 -83 150 -48 113 -84 172 -122 198 -21 14 -58 47 -83 72 -24
25 -47 45 -50 45 -3 -1 -22 -10 -43 -21z"/>
<path d="M2129 1154 c-18 -19 -55 -51 -80 -70 -43 -31 -99 -118 -99 -152 0
-32 -49 -134 -103 -213 -33 -49 -58 -91 -56 -93 2 -2 51 -27 109 -56 95 -48
107 -51 135 -41 52 19 100 14 133 -14 25 -21 40 -25 96 -25 36 0 66 3 66 6 0
4 -9 21 -19 38 -31 49 -70 66 -173 75 -86 7 -148 26 -163 50 -3 6 45 61 107
123 132 133 179 205 186 284 4 51 2 56 -31 89 -19 19 -44 35 -54 35 -11 0 -35
-16 -54 -36z"/>
<path d="M646 968 c32 -62 137 -154 226 -197 133 -66 217 -83 398 -85 119 -1
174 3 235 18 163 37 302 121 382 230 24 32 42 61 40 63 -2 2 -46 -17 -98 -41
-150 -71 -396 -147 -525 -162 -86 -11 -372 73 -588 171 -43 19 -79 35 -82 35
-2 0 3 -15 12 -32z"/>
<path d="M1855 831 c-13 -22 -159 -112 -214 -131 -52 -19 -68 -32 -131 -107
-54 -64 -76 -83 -88 -77 -40 17 -68 15 -95 -6 -46 -36 -34 -109 21 -128 51
-18 102 16 102 68 0 11 10 19 26 23 57 11 120 -26 144 -84 11 -26 10 -31 -11
-48 -17 -13 -23 -29 -23 -56 0 -95 132 -102 150 -8 5 26 1 37 -21 59 l-27 27
17 38 c28 61 49 74 114 71 31 -1 87 -10 125 -20 63 -16 71 -21 78 -47 16 -60
90 -76 127 -29 28 35 26 69 -4 99 -29 30 -73 32 -102 6 -20 -19 -22 -18 -160
49 -77 37 -144 73 -148 80 -4 7 17 46 52 98 62 90 87 132 79 132 -3 0 -7 -4
-11 -9z"/>
<path d="M742 778 c54 -83 78 -128 78 -149 0 -21 -18 -34 -144 -96 -141 -71
-144 -72 -162 -52 -41 45 -124 7 -124 -57 0 -37 36 -74 72 -74 34 0 78 36 78
64 0 20 9 24 73 39 169 40 202 33 237 -46 l19 -41 -25 -29 c-13 -16 -24 -40
-24 -53 0 -34 42 -74 78 -74 65 0 96 88 47 134 l-25 23 30 46 c22 35 38 49 69
58 54 16 91 6 91 -26 0 -60 85 -88 128 -42 29 31 28 72 -3 102 -26 27 -54 31
-87 14 -17 -9 -25 -6 -55 23 -19 18 -52 56 -74 84 -32 42 -51 56 -100 74 -33
13 -87 40 -120 62 -69 44 -77 46 -57 16z"/>
</g>
</svg>
